<?xml version="1.0" encoding="UTF-8"?>
<svg width="9px" height="9px" viewBox="0 0 9 9" version="1.1" xmlns="http://www.w3.org/2000/svg" xmlns:xlink="http://www.w3.org/1999/xlink">
    <!-- Generator: Sketch 55.2 (78181) - https://sketchapp.com -->
    <title>Icon/Cross</title>
    <desc>Created with Sketch.</desc>
    <g id="Page-1" stroke="none" stroke-width="1" fill="none" fill-rule="evenodd">
        <g id="Admin-Web-10" transform="translate(-373.000000, -581.000000)" fill="#424345" fill-rule="nonzero">
            <g id="Group-4" transform="translate(270.000000, 567.000000)">
                <path d="M107.06,23.68 C106.926666,23.68 106.816667,23.6366671 106.73,23.55 C106.643333,23.4633329 106.6,23.353334 106.6,23.22 L106.6,19.04 L102.46,19.04 C102.326666,19.04 102.216667,18.9966671 102.13,18.91 C102.043333,18.8233329 102,18.713334 102,18.58 L102,17.98 C102,17.846666 102.043333,17.7366671 102.13,17.65 C102.216667,17.5633329 102.326666,17.52 102.46,17.52 L106.6,17.52 L106.6,13.46 C106.6,13.3133326 106.643333,13.2000004 106.73,13.12 C106.816667,13.0399996 106.926666,13 107.06,13 L107.7,13 C107.846667,13 107.96,13.0399996 108.04,13.12 C108.12,13.2000004 108.16,13.3133326 108.16,13.46 L108.16,17.52 L112.3,17.52 C112.433334,17.52 112.543333,17.5633329 112.63,17.65 C112.716667,17.7366671 112.76,17.846666 112.76,17.98 L112.76,18.58 C112.76,18.713334 112.716667,18.8233329 112.63,18.91 C112.543333,18.9966671 112.433334,19.04 112.3,19.04 L108.16,19.04 L108.16,23.22 C108.16,23.353334 108.116667,23.4633329 108.03,23.55 C107.943333,23.6366671 107.833334,23.68 107.7,23.68 L107.06,23.68 Z" id="Icon/Cross" transform="translate(107.380000, 18.340000) rotate(45.000000) translate(-107.380000, -18.340000) "></path>
            </g>
        </g>
    </g>
</svg>