<?xml version="1.0" encoding="UTF-8"?>
<svg width="285px" height="233px" viewBox="0 0 285 233" version="1.1" xmlns="http://www.w3.org/2000/svg" xmlns:xlink="http://www.w3.org/1999/xlink">
    <!-- Generator: Sketch 55.2 (78181) - https://sketchapp.com -->
    <title>Group 4</title>
    <desc>Created with Sketch.</desc>
    <g id="Page-1" stroke="none" stroke-width="1" fill="none" fill-rule="evenodd" opacity="0.099999994">
        <g id="Admin-Web-1" transform="translate(-1140.000000, 0.000000)">
            <g id="Group-4" transform="translate(1139.000000, -97.000000)">
                <path d="M181.707092,23.6240591 L271.099271,14.3279909 L270.858996,208.691722 C270.819773,240.419957 246.579438,266.876465 214.975655,269.684198 L127.637665,277.443451 L126.740389,84.8896994 C126.593539,53.3759186 150.362002,26.8836967 181.707092,23.6240591 Z" id="Rectangle-Copy-6" fill="#FFFFFF" transform="translate(198.790466, 145.885721) rotate(14.000000) translate(-198.790466, -145.885721) "></path>
                <path d="M85.5548617,82.4573925 L174.947041,73.1613242 L174.706765,267.525055 C174.667542,299.25329 150.427207,325.709798 118.823425,328.517531 L31.4854339,336.276784 L30.5881581,143.723033 C30.441308,112.209252 54.209771,85.71703 85.5548617,82.4573925 Z" id="Rectangle-Copy-7" fill="#C3C3C3" transform="translate(102.638235, 204.719054) rotate(14.000000) translate(-102.638235, -204.719054) "></path>
            </g>
        </g>
    </g>
</svg>