<?xml version="1.0" encoding="UTF-8"?>
<svg width="249px" height="65px" viewBox="0 0 249 65" version="1.1" xmlns="http://www.w3.org/2000/svg" xmlns:xlink="http://www.w3.org/1999/xlink">
    <!-- Generator: Sketch 55.2 (78181) - https://sketchapp.com -->
    <title>Su-Swatantra_Logo</title>
    <desc>Created with Sketch.</desc>
    <g id="Page-1" stroke="none" stroke-width="1" fill="none" fill-rule="evenodd">
        <g id="Admin-Web-9" transform="translate(-30.000000, -21.000000)">
            <g id="Su-Swatantra_Logo" transform="translate(30.000000, 16.000000)">
                <path d="M38.4974368,5.31680283 L57.2447974,3.36466514 L57.1850886,44.0916181 C57.1753191,50.7553391 52.0843062,56.3113482 45.4468093,56.9020328 L27.1304735,58.5320416 L26.9515291,18.1846605 C26.9221743,11.5658868 31.914192,6.00230734 38.4974368,5.31680283 Z" id="Rectangle-Copy-6" fill="#022CA6" transform="translate(42.072306, 30.948353) rotate(14.000000) translate(-42.072306, -30.948353) "></path>
                <path d="M69.2622623,46.8307422 C67.5584853,46.8307422 66.1573739,46.6064998 65.0588861,46.1580149 C63.9603983,45.7095278 63.1701715,45.1601394 62.6881819,44.5098331 C62.2061924,43.8595268 61.9652012,43.2316543 61.9652012,42.6261967 L61.9988282,42.3234694 C62.0212464,42.0768015 62.1333353,41.8749854 62.3350983,41.7180149 C62.5368614,41.5610452 62.7386214,41.4825604 62.9403845,41.4825604 L67.0092527,41.4825604 C67.1661795,41.4825604 67.2670595,41.5274084 67.3118958,41.6171058 C67.4688226,41.7068032 67.6817915,41.8637714 67.950809,42.0880149 C68.3094988,42.4019543 68.6457656,42.6374081 68.9596192,42.7943785 C69.2734729,42.951349 69.6882019,43.0298331 70.2038186,43.0298331 C70.8091078,43.0298331 71.3303212,42.912107 71.7674745,42.6766513 C72.2046279,42.4411955 72.4680368,42.1104413 72.5577093,41.6843785 C72.5801274,41.5946811 72.5913363,41.471349 72.5913363,41.3143785 C72.5913363,40.9107402 72.3279273,40.5799859 71.8011016,40.3221058 C71.2742758,40.0642257 70.2822889,39.7895315 68.8251112,39.4980149 C65.6193203,38.8252843 64.0164488,37.4125711 64.0164488,35.2598331 C64.0164488,34.8561947 64.0612844,34.4749864 64.1509569,34.1161967 C64.3527199,33.1967982 64.8347022,32.3166555 65.5969183,31.4757422 C66.3591343,30.6348289 67.373539,29.9565023 68.6401626,29.4407422 C69.9067863,28.924982 71.3471289,28.6671058 72.9612334,28.6671058 C74.4856654,28.6671058 75.7746879,28.88574 76.8283395,29.3230149 C77.8819911,29.7602898 78.6722179,30.3040723 79.1990437,30.9543785 C79.7258695,31.6046848 79.9892784,32.2325573 79.9892784,32.8380149 L79.9556514,33.1071058 C79.9332333,33.3313494 79.8267488,33.5275595 79.6361948,33.6957422 C79.4456408,33.8639248 79.2494852,33.9480149 79.0477221,33.9480149 L75.3487511,33.9480149 C75.146988,33.9480149 75.0012724,33.9031669 74.9115999,33.8134694 C74.6650006,33.7013477 74.418405,33.5331675 74.1718057,33.308924 C73.8579521,33.0398317 73.555312,32.8324096 73.2638765,32.6866513 C72.9724409,32.540893 72.6025475,32.4680149 72.1541852,32.4680149 C71.5264778,32.4680149 71.0220777,32.630589 70.6409697,32.9557422 C70.2598617,33.2808953 70.0693106,33.6789216 70.0693106,34.1498331 C70.0693106,34.5086228 70.3271151,34.816953 70.8427318,35.0748331 C71.3583485,35.3327132 72.3447309,35.5961954 73.8019086,35.8652876 C75.6401943,36.2016529 76.9740524,36.7566474 77.8035228,37.5302876 C78.6329932,38.3039279 79.0477221,39.2289186 79.0477221,40.3052876 C79.0477221,40.6416529 79.0140955,40.9780132 78.9468411,41.3143785 C78.5881512,42.9962051 77.5569332,44.3360402 75.8531562,45.333924 C74.1493792,46.3318078 71.9524365,46.8307422 69.2622623,46.8307422 Z M85.717079,46.4943785 C85.1566261,46.4943785 84.853986,46.2140783 84.8091498,45.6534694 L83.2286803,29.978924 C83.2062622,29.7322561 83.2903289,29.5080159 83.4808829,29.3061967 C83.6714369,29.1043775 83.9012192,29.0034694 84.1702366,29.0034694 L87.7010726,29.0034694 C87.97009,29.0034694 88.1774545,29.0707415 88.3231723,29.2052876 C88.4688901,29.3398338 88.5529567,29.5080139 88.5753749,29.7098331 L89.3824231,39.0271058 L94.2247125,29.7771058 C94.3368031,29.5752866 94.4937276,29.3958945 94.6954906,29.238924 C94.8972537,29.0819535 95.1438493,29.0034694 95.4352848,29.0034694 L97.7891755,29.0034694 C98.0806111,29.0034694 98.2991844,29.0819535 98.4449022,29.238924 C98.59062,29.3958945 98.6746867,29.5752866 98.6971048,29.7771058 L99.672288,39.0271058 L104.380069,29.7098331 C104.469742,29.5304382 104.615457,29.3678641 104.817221,29.2221058 C105.018984,29.0763475 105.25437,29.0034694 105.523388,29.0034694 L109.457748,29.0034694 C109.861274,29.0034694 110.063034,29.1940736 110.063034,29.5752876 C110.063034,29.7322581 110.029407,29.8780142 109.962153,30.0125604 L101.824417,45.6534694 C101.510563,46.2140783 101.084625,46.4943785 100.54659,46.4943785 L97.3183974,46.4943785 C96.7355263,46.4943785 96.4216773,46.2140783 96.3768411,45.6534694 L95.0317607,36.7061967 L90.1222173,45.6534694 C89.8531999,46.2140783 89.427262,46.4943785 88.8443909,46.4943785 L85.717079,46.4943785 Z M116.63151,46.8307422 C114.748388,46.8307422 113.296837,46.3205958 112.276812,45.3002876 C111.256788,44.2799795 110.746783,42.8280243 110.746783,40.9443785 C110.746783,40.1819505 110.802828,39.5092299 110.914918,38.9261967 L111.419323,36.5380149 C112.069449,34.0489115 113.123085,32.11484 114.580262,30.7357422 C116.03744,29.3566444 117.898116,28.6671058 120.162346,28.6671058 C121.417761,28.6671058 122.404143,28.840892 123.121523,29.1884694 C123.838903,29.5360469 124.432974,30.0349813 124.903754,30.6852876 L125.105516,29.8443785 C125.150353,29.5977106 125.268046,29.3958945 125.4586,29.238924 C125.649154,29.0819535 125.867727,29.0034694 126.114327,29.0034694 L130.082314,29.0034694 C130.328913,29.0034694 130.519464,29.0875595 130.653973,29.2557422 C130.788482,29.4239248 130.833317,29.620135 130.788481,29.8443785 L127.42578,45.6534694 C127.380944,45.9001373 127.257646,46.1019535 127.055883,46.258924 C126.85412,46.4158945 126.641151,46.4943785 126.41697,46.4943785 L122.415356,46.4943785 C122.168756,46.4943785 121.978205,46.4102885 121.843696,46.2421058 C121.709188,46.0739232 121.664352,45.877713 121.709188,45.6534694 L121.944577,44.6107422 C121.159943,45.3507459 120.375321,45.9057403 119.590687,46.2757422 C118.806053,46.645744 117.81967,46.8307422 116.63151,46.8307422 Z M119.119909,42.1552876 C120.106306,42.1552876 120.907742,41.8469574 121.52424,41.2302876 C122.140738,40.6136179 122.57228,39.8343832 122.81888,38.8925604 C123.065479,37.9507375 123.244821,37.1098368 123.356912,36.3698331 C123.401748,36.0110434 123.424166,35.7531672 123.424166,35.5961967 C123.424166,34.9010417 123.244824,34.3516533 122.886134,33.9480149 C122.527444,33.5443765 121.95579,33.3425604 121.171156,33.3425604 C120.207177,33.3425604 119.444973,33.6396786 118.88452,34.233924 C118.324067,34.8281694 117.88692,35.6522521 117.573066,36.7061967 C117.348885,37.4686248 117.203169,38.1637693 117.135915,38.7916513 C117.068661,39.1952896 117.035034,39.576498 117.035034,39.9352876 C117.035034,40.652867 117.191959,41.2022554 117.505812,41.5834694 C117.819666,41.9646835 118.357693,42.1552876 119.119909,42.1552876 Z M141.627587,46.4943785 C137.435399,46.4943785 135.339336,44.9246973 135.339336,41.7852876 C135.339336,41.1574057 135.417799,40.4958972 135.574725,39.8007422 L136.886179,33.5780149 L134.263272,33.5780149 C134.016673,33.5780149 133.826122,33.4939248 133.691613,33.3257422 C133.557105,33.1575595 133.523477,32.9613494 133.590732,32.7371058 L134.162391,29.8443785 C134.207227,29.6201361 134.330525,29.4239248 134.532288,29.2557422 C134.734051,29.0875595 134.95823,29.0034694 135.204828,29.0034694 L137.861362,29.0034694 L139.038307,23.4534694 C139.083144,23.2068015 139.206441,23.0049854 139.408204,22.8480149 C139.609968,22.6910444 139.822936,22.6125604 140.047118,22.6125604 L144.18324,22.6125604 C144.429839,22.6125604 144.614786,22.6966504 144.738085,22.8648331 C144.861385,23.0330157 144.900616,23.2292259 144.85578,23.4534694 L143.678835,29.0034694 L147.882211,29.0034694 C148.128809,29.0034694 148.313757,29.0819535 148.437057,29.238924 C148.560356,29.3958945 148.599587,29.5977106 148.554751,29.8443785 L147.949465,32.7371058 C147.904629,32.9837725 147.781331,33.1855899 147.579568,33.3425604 C147.377805,33.4995308 147.164836,33.5780149 146.940655,33.5780149 L142.703651,33.5780149 L141.493079,39.2961967 C141.403407,39.6774107 141.358571,40.0586191 141.358571,40.4398331 C141.358571,40.8658958 141.465055,41.1798321 141.678028,41.3816513 C141.891,41.5834705 142.255289,41.6843785 142.770905,41.6843785 L145.494693,41.6843785 C145.741292,41.6843785 145.926239,41.7684686 146.049539,41.9366513 C146.172839,42.1048339 146.21207,42.3122561 146.167233,42.558924 L145.494693,45.6534694 C145.449857,45.9001373 145.326558,46.1019535 145.124796,46.258924 C144.923033,46.4158945 144.710064,46.4943785 144.485883,46.4943785 L141.627587,46.4943785 Z M155.863021,46.8307422 C153.979899,46.8307422 152.528348,46.3205958 151.508323,45.3002876 C150.488299,44.2799795 149.978294,42.8280243 149.978294,40.9443785 C149.978294,40.1819505 150.034339,39.5092299 150.14643,38.9261967 L150.650835,36.5380149 C151.30096,34.0489115 152.354596,32.11484 153.811774,30.7357422 C155.268951,29.3566444 157.129627,28.6671058 159.393857,28.6671058 C160.649272,28.6671058 161.635654,28.840892 162.353034,29.1884694 C163.070414,29.5360469 163.664485,30.0349813 164.135266,30.6852876 L164.337028,29.8443785 C164.381864,29.5977106 164.499557,29.3958945 164.690111,29.238924 C164.880665,29.0819535 165.099239,29.0034694 165.345838,29.0034694 L169.313825,29.0034694 C169.560424,29.0034694 169.750975,29.0875595 169.885484,29.2557422 C170.019993,29.4239248 170.064828,29.620135 170.019992,29.8443785 L166.657291,45.6534694 C166.612455,45.9001373 166.489157,46.1019535 166.287394,46.258924 C166.085631,46.4158945 165.872662,46.4943785 165.648481,46.4943785 L161.646867,46.4943785 C161.400268,46.4943785 161.209716,46.4102885 161.075208,46.2421058 C160.940699,46.0739232 160.895863,45.877713 160.9407,45.6534694 L161.176089,44.6107422 C160.391455,45.3507459 159.606832,45.9057403 158.822198,46.2757422 C158.037564,46.645744 157.051181,46.8307422 155.863021,46.8307422 Z M158.35142,42.1552876 C159.337817,42.1552876 160.139253,41.8469574 160.755751,41.2302876 C161.372249,40.6136179 161.803792,39.8343832 162.050391,38.8925604 C162.29699,37.9507375 162.476333,37.1098368 162.588423,36.3698331 C162.633259,36.0110434 162.655677,35.7531672 162.655677,35.5961967 C162.655677,34.9010417 162.476335,34.3516533 162.117645,33.9480149 C161.758955,33.5443765 161.187302,33.3425604 160.402667,33.3425604 C159.438688,33.3425604 158.676484,33.6396786 158.116031,34.233924 C157.555578,34.8281694 157.118431,35.6522521 156.804577,36.7061967 C156.580396,37.4686248 156.434681,38.1637693 156.367426,38.7916513 C156.300172,39.1952896 156.266545,39.576498 156.266545,39.9352876 C156.266545,40.652867 156.42347,41.2022554 156.737323,41.5834694 C157.051177,41.9646835 157.589204,42.1552876 158.35142,42.1552876 Z M172.317838,46.4943785 C172.071239,46.4943785 171.886292,46.4102885 171.762992,46.2421058 C171.639693,46.0739232 171.600461,45.877713 171.645298,45.6534694 L174.974372,29.8443785 C175.019208,29.620135 175.142506,29.4239248 175.344269,29.2557422 C175.546032,29.0875595 175.77021,29.0034694 176.016809,29.0034694 L180.152931,29.0034694 C180.377112,29.0034694 180.55085,29.0819535 180.67415,29.238924 C180.797449,29.3958945 180.836681,29.5977106 180.791844,29.8443785 L180.522828,31.1225604 C182.204187,29.4855825 184.143325,28.6671058 186.340301,28.6671058 C188.111332,28.6671058 189.490026,29.1211922 190.476423,30.0293785 C191.46282,30.9375649 191.956012,32.254976 191.956012,33.9816513 C191.956012,34.6095332 191.86634,35.3719498 191.686995,36.268924 L189.669375,45.6534694 C189.624539,45.9001373 189.506845,46.1019535 189.316291,46.258924 C189.125737,46.4158945 188.907164,46.4943785 188.660565,46.4943785 L184.188172,46.4943785 C183.941573,46.4943785 183.756626,46.4102885 183.633327,46.2421058 C183.510027,46.0739232 183.470796,45.877713 183.515632,45.6534694 L185.432372,36.4707422 C185.544462,35.9549846 185.600507,35.5401377 185.600507,35.2261967 C185.600507,34.5983148 185.426769,34.1274104 185.079288,33.8134694 C184.731807,33.4995285 184.188176,33.3425604 183.448378,33.3425604 C182.506817,33.3425604 181.705381,33.6172546 181.044047,34.1666513 C180.382712,34.716048 179.939961,35.4840706 179.71578,36.4707422 L177.79904,45.6534694 C177.754204,45.9001373 177.630906,46.1019535 177.429143,46.258924 C177.22738,46.4158945 177.014411,46.4943785 176.79023,46.4943785 L172.317838,46.4943785 Z M203.501285,46.4943785 C199.309097,46.4943785 197.213034,44.9246973 197.213034,41.7852876 C197.213034,41.1574057 197.291496,40.4958972 197.448423,39.8007422 L198.759876,33.5780149 L196.13697,33.5780149 C195.89037,33.5780149 195.699819,33.4939248 195.565311,33.3257422 C195.430802,33.1575595 195.397175,32.9613494 195.46443,32.7371058 L196.036089,29.8443785 C196.080925,29.6201361 196.204223,29.4239248 196.405986,29.2557422 C196.607749,29.0875595 196.831928,29.0034694 197.078526,29.0034694 L199.73506,29.0034694 L200.912005,23.4534694 C200.956841,23.2068015 201.080139,23.0049854 201.281902,22.8480149 C201.483665,22.6910444 201.696634,22.6125604 201.920815,22.6125604 L206.056938,22.6125604 C206.303537,22.6125604 206.488484,22.6966504 206.611783,22.8648331 C206.735083,23.0330157 206.774314,23.2292259 206.729478,23.4534694 L205.552532,29.0034694 L209.755909,29.0034694 C210.002506,29.0034694 210.187455,29.0819535 210.310754,29.238924 C210.434054,29.3958945 210.473285,29.5977106 210.428449,29.8443785 L209.823163,32.7371058 C209.778326,32.9837725 209.655029,33.1855899 209.453266,33.3425604 C209.251502,33.4995308 209.038534,33.5780149 208.814352,33.5780149 L204.577349,33.5780149 L203.366777,39.2961967 C203.277104,39.6774107 203.232269,40.0586191 203.232269,40.4398331 C203.232269,40.8658958 203.338753,41.1798321 203.551725,41.3816513 C203.764697,41.5834705 204.128986,41.6843785 204.644603,41.6843785 L207.368391,41.6843785 C207.61499,41.6843785 207.799937,41.7684686 207.923237,41.9366513 C208.046536,42.1048339 208.085767,42.3122561 208.040931,42.558924 L207.368391,45.6534694 C207.323555,45.9001373 207.200256,46.1019535 206.998494,46.258924 C206.796731,46.4158945 206.583762,46.4943785 206.35958,46.4943785 L203.501285,46.4943785 Z M211.885619,46.4943785 C211.63902,46.4943785 211.454073,46.4102885 211.330774,46.2421058 C211.207474,46.0739232 211.168243,45.877713 211.213079,45.6534694 L214.542153,29.8780149 C214.586989,29.631347 214.710287,29.4239248 214.91205,29.2557422 C215.113813,29.0875595 215.337991,29.0034694 215.58459,29.0034694 L219.687085,29.0034694 C219.933685,29.0034694 220.118631,29.0875595 220.241931,29.2557422 C220.365231,29.4239248 220.404462,29.631347 220.359626,29.8780149 L220.09061,31.1561967 C220.673481,30.4610417 221.368432,29.9284713 222.175484,29.5584694 C222.982536,29.1884676 223.968919,29.0034694 225.134661,29.0034694 L227.085028,29.0034694 C227.309209,29.0034694 227.482947,29.0819535 227.606246,29.238924 C227.729546,29.3958945 227.768777,29.5977106 227.723941,29.8443785 L226.95052,33.5107422 C226.928101,33.7349857 226.816013,33.9311959 226.614249,34.0993785 C226.412486,34.2675612 226.188309,34.3516513 225.941709,34.3516513 L222.545381,34.3516513 C221.648657,34.3516513 220.90887,34.5983155 220.325999,35.0916513 C219.743128,35.5849871 219.362025,36.2801316 219.18268,37.1771058 L217.366822,45.6534694 C217.321986,45.9001373 217.198688,46.1019543 216.996925,46.258924 C216.795162,46.4158945 216.570984,46.4943785 216.324385,46.4943785 L211.885619,46.4943785 Z M234.326044,46.8307422 C232.442922,46.8307422 230.99137,46.3205958 229.971346,45.3002876 C228.951322,44.2799795 228.441317,42.8280243 228.441317,40.9443785 C228.441317,40.1819505 228.497361,39.5092299 228.609452,38.9261967 L229.113857,36.5380149 C229.763983,34.0489115 230.817618,32.11484 232.274796,30.7357422 C233.731974,29.3566444 235.59265,28.6671058 237.85688,28.6671058 C239.112294,28.6671058 240.098677,28.840892 240.816057,29.1884694 C241.533436,29.5360469 242.127508,30.0349813 242.598288,30.6852876 L242.80005,29.8443785 C242.844886,29.5977106 242.96258,29.3958945 243.153134,29.238924 C243.343688,29.0819535 243.562261,29.0034694 243.80886,29.0034694 L247.776848,29.0034694 C248.023447,29.0034694 248.213998,29.0875595 248.348507,29.2557422 C248.483015,29.4239248 248.527851,29.620135 248.483015,29.8443785 L245.120314,45.6534694 C245.075478,45.9001373 244.95218,46.1019535 244.750417,46.258924 C244.548654,46.4158945 244.335685,46.4943785 244.111503,46.4943785 L240.109889,46.4943785 C239.86329,46.4943785 239.672739,46.4102885 239.53823,46.2421058 C239.403721,46.0739232 239.358886,45.877713 239.403722,45.6534694 L239.639111,44.6107422 C238.854477,45.3507459 238.069855,45.9057403 237.285221,46.2757422 C236.500586,46.645744 235.514204,46.8307422 234.326044,46.8307422 Z M236.814442,42.1552876 C237.80084,42.1552876 238.602275,41.8469574 239.218774,41.2302876 C239.835272,40.6136179 240.266814,39.8343832 240.513413,38.8925604 C240.760013,37.9507375 240.939355,37.1098368 241.051446,36.3698331 C241.096282,36.0110434 241.1187,35.7531672 241.1187,35.5961967 C241.1187,34.9010417 240.939357,34.3516533 240.580667,33.9480149 C240.221978,33.5443765 239.650324,33.3425604 238.86569,33.3425604 C237.901711,33.3425604 237.139506,33.6396786 236.579053,34.233924 C236.0186,34.8281694 235.581454,35.6522521 235.2676,36.7061967 C235.043419,37.4686248 234.897703,38.1637693 234.830449,38.7916513 C234.763194,39.1952896 234.729568,39.576498 234.729568,39.9352876 C234.729568,40.652867 234.886492,41.2022554 235.200346,41.5834694 C235.5142,41.9646835 236.052226,42.1552876 236.814442,42.1552876 Z" id="swatantra-copy-3" fill="#112147" fill-rule="nonzero"></path>
                <path d="M18.321231,17.6501362 L37.0685916,15.6979985 L37.0088828,56.4249514 C36.9991133,63.0886724 31.9081004,68.6446816 25.2706035,69.2353662 L6.9542677,70.8653749 L6.77532336,30.5179939 C6.74596849,23.8992201 11.7379862,18.3356407 18.321231,17.6501362 Z" id="Rectangle-Copy-7" fill="#2196F0" transform="translate(21.896100, 43.281687) rotate(14.000000) translate(-21.896100, -43.281687) "></path>
                <polygon id="Path-2" fill="#194CC6" points="29.6728666 18.2507373 43.2910019 20.1879097 34.2395359 56.1904873 20.9012116 54.0979316"></polygon>
                <path d="M18.8217479,46.7746816 C17.1179708,46.7746816 15.7168595,46.5504391 14.6183717,46.1019543 C13.5198838,45.6534672 12.729657,45.1040788 12.2476675,44.4537725 C11.7656779,43.8034662 11.5246868,43.1755937 11.5246868,42.5701361 L11.5583138,42.2674088 C11.5807319,42.0207409 11.6928208,41.8189248 11.8945839,41.6619543 C12.0963469,41.5049846 12.298107,41.4264998 12.49987,41.4264998 L16.5687382,41.4264998 C16.725665,41.4264998 16.8265451,41.4713478 16.8713813,41.5610452 C17.0283081,41.6507426 17.2412771,41.8077108 17.5102945,42.0319543 C17.8689844,42.3458937 18.2052511,42.5813475 18.5191048,42.7383179 C18.8329584,42.8952884 19.2476874,42.9737725 19.7633041,42.9737725 C20.3685933,42.9737725 20.8898068,42.8560464 21.3269601,42.6205907 C21.7641134,42.3851349 22.0275223,42.0543807 22.1171948,41.6283179 C22.1396129,41.5386205 22.1508218,41.4152884 22.1508218,41.2583179 C22.1508218,40.8546796 21.8874129,40.5239253 21.3605871,40.2660452 C20.8337613,40.0081651 19.8417744,39.7334709 18.3845967,39.4419543 C15.1788058,38.7692237 13.5759344,37.3565105 13.5759344,35.2037725 C13.5759344,34.8001341 13.6207699,34.4189258 13.7104424,34.0601361 C13.9122055,33.1407376 14.3941878,32.2605949 15.1564038,31.4196816 C15.9186198,30.5787683 16.9330245,29.9004417 18.1996482,29.3846816 C19.4662719,28.8689214 20.9066144,28.6110452 22.5207189,28.6110452 C24.045151,28.6110452 25.3341735,28.8296794 26.387825,29.2669543 C27.4414766,29.7042292 28.2317034,30.2480117 28.7585292,30.8983179 C29.285355,31.5486242 29.5487639,32.1764967 29.5487639,32.7819543 L29.5151369,33.0510452 C29.4927188,33.2752888 29.3862343,33.4714989 29.1956803,33.6396816 C29.0051263,33.8078642 28.8089707,33.8919543 28.6072077,33.8919543 L24.9082366,33.8919543 C24.7064735,33.8919543 24.560758,33.8471063 24.4710855,33.7574088 C24.2244862,33.6452871 23.9778906,33.4771069 23.7312913,33.2528634 C23.4174376,32.9837711 23.1147975,32.776349 22.823362,32.6305907 C22.5319265,32.4848324 22.1620331,32.4119543 21.7136707,32.4119543 C21.0859634,32.4119543 20.5815633,32.5745284 20.2004553,32.8996816 C19.8193472,33.2248347 19.6287961,33.622861 19.6287961,34.0937725 C19.6287961,34.4525622 19.8866006,34.7608924 20.4022173,35.0187725 C20.917834,35.2766526 21.9042165,35.5401348 23.3613942,35.809227 C25.1996799,36.1455923 26.5335379,36.7005868 27.3630083,37.474227 C28.1924787,38.2478673 28.6072077,39.172858 28.6072077,40.249227 C28.6072077,40.5855923 28.573581,40.9219526 28.5063266,41.2583179 C28.1476367,42.9401445 27.1164188,44.2799796 25.4126417,45.2778634 C23.7088647,46.2757472 21.5119221,46.7746816 18.8217479,46.7746816 Z M37.6304553,46.7746816 C35.9042601,46.7746816 34.5423799,46.3149892 33.5447736,45.3955907 C32.5471673,44.4761921 32.0483717,43.1531751 32.0483717,41.4264998 C32.0483717,40.7761935 32.1380428,40.0249889 32.3173877,39.1728634 L34.3013813,29.7883179 C34.3462175,29.54165 34.4695153,29.3398339 34.6712784,29.1828634 C34.8730415,29.0258929 35.0972193,28.9474088 35.3438186,28.9474088 C38.9118998,28.9474088 40.829609,28.9474088 41.0969461,28.9474088 L38.5383845,38.9710452 C38.4262939,39.4868054 38.3702495,39.9016497 38.3702495,40.2155907 C38.3702495,40.8434726 38.5439873,41.314377 38.8914681,41.6283179 C39.238949,41.9422589 39.7825802,42.099227 40.5223781,42.099227 C41.4415209,42.099227 42.2261433,41.8245328 42.8762688,41.2751361 C43.5263942,40.7257394 44.1316761,39.9577168 44.3558573,38.9710452 L46.6985389,29.7883179 C46.7433751,29.5640744 46.8666729,29.3678642 47.068436,29.1996816 C47.270199,29.0314989 47.4943768,28.9474088 47.7409762,28.9474088 L53.2445968,28.9474088 L48.9291305,45.5974088 C48.8842943,45.8440767 48.7666009,46.0458937 48.5760469,46.2028634 C48.3854929,46.3598339 48.1669195,46.4383179 47.9203202,46.4383179 L43.817825,46.4383179 C43.5712257,46.4383179 43.3806746,46.3542279 43.2461659,46.1860452 C43.1116572,46.0178625 43.0668216,45.8216524 43.1116578,45.5974088 L43.3806739,44.319227 C42.5960398,45.1713525 41.7777907,45.793619 40.9259022,46.1860452 C40.0740137,46.5784714 38.9755424,46.7746816 37.6304553,46.7746816 Z" id="su-copy-3" fill="#FFFFFF" fill-rule="nonzero"></path>
                <path d="M62.3068457,65.9565217 C61.8003029,65.9565217 61.4377487,65.8606712 61.219172,65.6689674 C61.0005954,65.4772635 60.8913087,65.196683 60.8913087,64.8272174 C60.8913087,64.625057 60.919064,64.3915303 60.9745756,64.1266304 L61.5678521,61.3242826 L60.756,61.3242826 C60.6866106,61.3242826 60.6328346,61.3033698 60.5946704,61.2615435 C60.5565062,61.2197172 60.5443633,61.1639496 60.5582412,61.0942391 L60.6310997,60.7596304 C60.6449776,60.6899199 60.6796717,60.6324096 60.7351833,60.5870978 C60.7906948,60.541786 60.8531443,60.5191304 60.9225338,60.5191304 L61.7343859,60.5191304 L62.1090868,58.7728913 C62.1229647,58.7031808 62.1559242,58.6456705 62.2079662,58.6003587 C62.2600083,58.5550469 62.3207231,58.5323913 62.3901125,58.5323913 L62.837672,58.5323913 C62.9140004,58.5323913 62.9695111,58.5550469 63.0042058,58.6003587 C63.0389005,58.6456705 63.0493088,58.7031808 63.0354309,58.7728913 L62.6607299,60.5191304 L63.9513666,60.5191304 C64.020756,60.5191304 64.0727973,60.5400433 64.107492,60.5818696 C64.1421867,60.6236959 64.1525949,60.6829489 64.138717,60.7596304 L64.0658585,61.0942391 C64.0519806,61.1639496 64.0190212,61.2197172 63.9669791,61.2615435 C63.914937,61.3033698 63.8542222,61.3242826 63.7848328,61.3242826 L62.4941961,61.3242826 L61.911328,64.0534348 C61.8488775,64.3392478 61.8176527,64.5448907 61.8176527,64.6703696 C61.8176527,64.8237327 61.8610205,64.9387532 61.9477572,65.0154348 C62.034494,65.0921163 62.1854137,65.1304565 62.4005209,65.1304565 L63.0874727,65.1304565 C63.1568621,65.1304565 63.2071687,65.1531121 63.2383939,65.1984239 C63.2696191,65.2437357 63.2782927,65.301246 63.2644148,65.3709565 L63.1915563,65.7160217 C63.1776784,65.7857322 63.1447189,65.8432425 63.0926768,65.8885543 C63.0406348,65.9338662 62.97992,65.9565217 62.9105305,65.9565217 L62.3068457,65.9565217 Z M65.3710212,65.9565217 C65.3016318,65.9565217 65.2478558,65.9338662 65.2096917,65.8885543 C65.1715275,65.8432425 65.1593845,65.7857322 65.1732624,65.7160217 L66.6512495,58.7728913 C66.6651274,58.7031808 66.6980869,58.6456705 66.750129,58.6003587 C66.802171,58.5550469 66.8628858,58.5323913 66.9322753,58.5323913 L67.4214682,58.5323913 C67.4908576,58.5323913 67.5428989,58.5550469 67.5775936,58.6003587 C67.6122883,58.6456705 67.6226966,58.7031808 67.6088187,58.7728913 L67.0884007,61.2092609 C67.3243247,60.951332 67.5827964,60.7544029 67.8638235,60.6184674 C68.1448506,60.4825319 68.4796495,60.4145652 68.8682302,60.4145652 C69.4511013,60.4145652 69.8986563,60.567926 70.2109087,60.8746522 C70.5231611,61.1813783 70.6792849,61.5961496 70.6792849,62.1189783 C70.6792849,62.3420518 70.654999,62.5546657 70.6064264,62.7568261 L69.9715164,65.7160217 C69.9576385,65.7857322 69.9246791,65.8432425 69.872637,65.8885543 C69.8205949,65.9338662 69.7598801,65.9565217 69.6904907,65.9565217 L69.2012978,65.9565217 C69.1319084,65.9565217 69.0798671,65.9338662 69.0451724,65.8885543 C69.0104777,65.8432425 69.0000694,65.7857322 69.0139473,65.7160217 L69.6176322,62.8195652 C69.6662048,62.6243758 69.6904907,62.4291894 69.6904907,62.234 C69.6904907,61.5647793 69.3400794,61.2301739 68.6392463,61.2301739 C68.1882151,61.2301739 67.7857626,61.3730783 67.4318765,61.6588913 C67.0779905,61.9447043 66.8490089,62.3315918 66.7449248,62.8195652 L66.1412399,65.7160217 C66.127362,65.7857322 66.0944025,65.8432425 66.0423605,65.8885543 C65.9903184,65.9338662 65.9296036,65.9565217 65.8602142,65.9565217 L65.3710212,65.9565217 Z M74.6906213,66.061087 C74.0730555,66.061087 73.5994798,65.8920415 73.2698801,65.5539457 C72.9402804,65.2158498 72.775483,64.7435682 72.775483,64.137087 C72.775483,63.9418976 72.7893607,63.7571675 72.8171164,63.5828913 C72.8518112,63.3737598 72.900383,63.1402332 72.9628335,62.8823043 C73.1710017,62.129431 73.533556,61.5299298 74.0505071,61.0837826 C74.5674583,60.6376355 75.1798107,60.4145652 75.8875827,60.4145652 C76.5120874,60.4145652 76.9891325,60.5818679 77.3187322,60.9164783 C77.6483319,61.2510886 77.8131293,61.7181419 77.8131293,62.3176522 C77.8131293,62.56861 77.7819045,62.8404768 77.7194541,63.1332609 L77.6778206,63.3214783 C77.6639427,63.3911888 77.6275138,63.448699 77.5685328,63.4940109 C77.5095518,63.5393227 77.4453676,63.5619783 77.3759782,63.5619783 L73.7746856,63.5619783 L73.7538689,63.656087 C73.733052,63.7815658 73.7226438,63.9070429 73.7226438,64.0325217 C73.7226438,64.3950163 73.8197875,64.6965097 74.0140779,64.9370109 C74.2083682,65.1775121 74.4859217,65.2977609 74.8467467,65.2977609 C75.1728769,65.2977609 75.4538998,65.2332796 75.6898238,65.1043152 C75.9257478,64.9753508 76.1061576,64.8411601 76.2310586,64.7017391 C76.3073869,64.6180865 76.3646323,64.5675472 76.4027965,64.5501196 C76.4409607,64.5326919 76.5016755,64.5239783 76.5849428,64.5239783 L77.053319,64.5239783 C77.1157695,64.5239783 77.1643414,64.5431484 77.1990361,64.5814891 C77.2337308,64.6198299 77.244139,64.6703693 77.2302611,64.7331087 C77.1886275,64.8864718 77.0498507,65.0694591 76.8139267,65.2820761 C76.5780027,65.4946931 76.2744286,65.6776804 75.9031952,65.8310435 C75.5319619,65.9844066 75.1277746,66.061087 74.6906213,66.061087 Z M76.8243351,62.8509348 L76.8347435,62.8195652 C76.8694382,62.645289 76.8867853,62.4919282 76.8867853,62.3594783 C76.8867853,61.9969837 76.7861721,61.7076895 76.5849428,61.491587 C76.3837135,61.2754844 76.0992212,61.1674348 75.7314573,61.1674348 C75.2804261,61.1674348 74.8935859,61.3207956 74.5709251,61.6275217 C74.2482643,61.9342479 74.0348951,62.3315918 73.930811,62.8195652 L73.930811,62.8509348 L76.8243351,62.8509348 Z M88.6605853,66.061087 C88.0430195,66.061087 87.5694439,65.8920415 87.2398442,65.5539457 C86.9102444,65.2158498 86.7454471,64.7435682 86.7454471,64.137087 C86.7454471,63.9418976 86.7593247,63.7571675 86.7870805,63.5828913 C86.8217752,63.3737598 86.8703471,63.1402332 86.9327975,62.8823043 C87.1409658,62.129431 87.50352,61.5299298 88.0204712,61.0837826 C88.5374223,60.6376355 89.1497747,60.4145652 89.8575467,60.4145652 C90.4820515,60.4145652 90.9590965,60.5818679 91.2886963,60.9164783 C91.618296,61.2510886 91.7830934,61.7181419 91.7830934,62.3176522 C91.7830934,62.56861 91.7518686,62.8404768 91.6894181,63.1332609 L91.6477847,63.3214783 C91.6339068,63.3911888 91.5974779,63.448699 91.5384969,63.4940109 C91.4795159,63.5393227 91.4153316,63.5619783 91.3459422,63.5619783 L87.7446496,63.5619783 L87.7238329,63.656087 C87.7030161,63.7815658 87.6926078,63.9070429 87.6926078,64.0325217 C87.6926078,64.3950163 87.7897516,64.6965097 87.9840419,64.9370109 C88.1783323,65.1775121 88.4558858,65.2977609 88.8167107,65.2977609 C89.142841,65.2977609 89.4238639,65.2332796 89.6597879,65.1043152 C89.8957119,64.9753508 90.0761217,64.8411601 90.2010226,64.7017391 C90.277351,64.6180865 90.3345964,64.5675472 90.3727606,64.5501196 C90.4109247,64.5326919 90.4716396,64.5239783 90.5549069,64.5239783 L91.0232831,64.5239783 C91.0857335,64.5239783 91.1343054,64.5431484 91.1690001,64.5814891 C91.2036948,64.6198299 91.2141031,64.6703693 91.2002252,64.7331087 C91.1585915,64.8864718 91.0198148,65.0694591 90.7838908,65.2820761 C90.5479668,65.4946931 90.2443926,65.6776804 89.8731593,65.8310435 C89.5019259,65.9844066 89.0977386,66.061087 88.6605853,66.061087 Z M90.7942991,62.8509348 L90.8047075,62.8195652 C90.8394022,62.645289 90.8567493,62.4919282 90.8567493,62.3594783 C90.8567493,61.9969837 90.7561362,61.7076895 90.5549069,61.491587 C90.3536776,61.2754844 90.0691852,61.1674348 89.7014213,61.1674348 C89.2503901,61.1674348 88.86355,61.3207956 88.5408892,61.6275217 C88.2182284,61.9342479 88.0048592,62.3315918 87.900775,62.8195652 L87.900775,62.8509348 L90.7942991,62.8509348 Z M93.4213236,65.9565217 C93.3519342,65.9565217 93.2981582,65.9338662 93.259994,65.8885543 C93.2218298,65.8432425 93.2096869,65.7857322 93.2235648,65.7160217 L94.2748091,60.7596304 C94.288687,60.6899199 94.3233812,60.6324096 94.3788927,60.5870978 C94.4344043,60.541786 94.4968538,60.5191304 94.5662432,60.5191304 L95.0138027,60.5191304 C95.0831921,60.5191304 95.1352334,60.5400433 95.1699281,60.5818696 C95.2046228,60.6236959 95.2150311,60.6829489 95.2011532,60.7596304 L95.0970696,61.2197174 C95.6105513,60.6829466 96.2211689,60.4145652 96.928941,60.4145652 C97.5256899,60.4145652 97.9715102,60.5574696 98.2664152,60.8432826 C98.5613203,61.1290956 98.7087706,61.529925 98.7087706,62.0457826 C98.7087706,62.2549141 98.6810152,62.4919262 98.6255037,62.7568261 L97.9905937,65.7160217 C97.9767158,65.7857322 97.9437563,65.8432425 97.8917143,65.8885543 C97.8396722,65.9338662 97.7789574,65.9565217 97.709568,65.9565217 L97.2307834,65.9565217 C97.161394,65.9565217 97.1093527,65.9338662 97.074658,65.8885543 C97.0399633,65.8432425 97.029555,65.7857322 97.0434329,65.7160217 L97.6471178,62.8195652 C97.7095683,62.5546653 97.7407931,62.3246242 97.7407931,62.1294348 C97.7407931,61.8227086 97.6592617,61.5961529 97.4961966,61.4497609 C97.3331315,61.3033688 97.0677209,61.2301739 96.699957,61.2301739 C96.2142311,61.2301739 95.8013703,61.3713355 95.4613622,61.653663 C95.1213541,61.9359905 94.8958418,62.3246207 94.7848188,62.8195652 L94.1811339,65.7160217 C94.167256,65.7857322 94.1342965,65.8432425 94.0822545,65.8885543 C94.0302124,65.9338662 93.9694976,65.9565217 93.9001082,65.9565217 L93.4213236,65.9565217 Z M102.491123,65.9565217 C101.98458,65.9565217 101.622026,65.8606712 101.403449,65.6689674 C101.184873,65.4772635 101.075586,65.196683 101.075586,64.8272174 C101.075586,64.625057 101.103341,64.3915303 101.158853,64.1266304 L101.752129,61.3242826 L100.940277,61.3242826 C100.870888,61.3242826 100.817112,61.3033698 100.778948,61.2615435 C100.740784,61.2197172 100.728641,61.1639496 100.742518,61.0942391 L100.815377,60.7596304 C100.829255,60.6899199 100.863949,60.6324096 100.919461,60.5870978 C100.974972,60.541786 101.037422,60.5191304 101.106811,60.5191304 L101.918663,60.5191304 L102.293364,58.7728913 C102.307242,58.7031808 102.340202,58.6456705 102.392244,58.6003587 C102.444286,58.5550469 102.505,58.5323913 102.57439,58.5323913 L103.021949,58.5323913 C103.098278,58.5323913 103.153788,58.5550469 103.188483,58.6003587 C103.223178,58.6456705 103.233586,58.7031808 103.219708,58.7728913 L102.845007,60.5191304 L104.135644,60.5191304 C104.205033,60.5191304 104.257075,60.5400433 104.291769,60.5818696 C104.326464,60.6236959 104.336872,60.6829489 104.322994,60.7596304 L104.250136,61.0942391 C104.236258,61.1639496 104.203298,61.2197172 104.151256,61.2615435 C104.099214,61.3033698 104.0385,61.3242826 103.96911,61.3242826 L102.678473,61.3242826 L102.095605,64.0534348 C102.033155,64.3392478 102.00193,64.5448907 102.00193,64.6703696 C102.00193,64.8237327 102.045298,64.9387532 102.132035,65.0154348 C102.218771,65.0921163 102.369691,65.1304565 102.584798,65.1304565 L103.27175,65.1304565 C103.341139,65.1304565 103.391446,65.1531121 103.422671,65.1984239 C103.453896,65.2437357 103.46257,65.301246 103.448692,65.3709565 L103.375834,65.7160217 C103.361956,65.7857322 103.328996,65.8432425 103.276954,65.8885543 C103.224912,65.9338662 103.164197,65.9565217 103.094808,65.9565217 L102.491123,65.9565217 Z M105.555299,65.9565217 C105.485909,65.9565217 105.432133,65.9338662 105.393969,65.8885543 C105.355805,65.8432425 105.343662,65.7857322 105.35754,65.7160217 L106.408784,60.770087 C106.422662,60.7003765 106.457356,60.6411234 106.512868,60.5923261 C106.568379,60.5435287 106.630829,60.5191304 106.700218,60.5191304 L107.137369,60.5191304 C107.213698,60.5191304 107.269208,60.5435287 107.303903,60.5923261 C107.338598,60.6411234 107.349006,60.7003765 107.335128,60.770087 L107.231045,61.2301739 C107.564114,60.7561426 108.087996,60.5191304 108.802707,60.5191304 L109.239858,60.5191304 C109.309247,60.5191304 109.361289,60.5400433 109.395983,60.5818696 C109.430678,60.6236959 109.441086,60.6829489 109.427209,60.7596304 L109.343942,61.1465217 C109.337003,61.2162322 109.305778,61.2737425 109.250266,61.3190543 C109.194755,61.3643662 109.132305,61.3870217 109.062916,61.3870217 L108.459231,61.3870217 C108.077589,61.3870217 107.753199,61.4985569 107.486049,61.7216304 C107.2189,61.944704 107.047164,62.2479401 106.970836,62.6313478 L106.315109,65.7160217 C106.301231,65.7857322 106.266537,65.8432425 106.211025,65.8885543 C106.155514,65.9338662 106.093064,65.9565217 106.023675,65.9565217 L105.555299,65.9565217 Z M112.408117,66.061087 C111.790551,66.061087 111.316976,65.8920415 110.987376,65.5539457 C110.657776,65.2158498 110.492979,64.7435682 110.492979,64.137087 C110.492979,63.9418976 110.506857,63.7571675 110.534612,63.5828913 C110.569307,63.3737598 110.617879,63.1402332 110.680329,62.8823043 C110.888498,62.129431 111.251052,61.5299298 111.768003,61.0837826 C112.284954,60.6376355 112.897307,60.4145652 113.605079,60.4145652 C114.229583,60.4145652 114.706628,60.5818679 115.036228,60.9164783 C115.365828,61.2510886 115.530625,61.7181419 115.530625,62.3176522 C115.530625,62.56861 115.499401,62.8404768 115.43695,63.1332609 L115.395317,63.3214783 C115.381439,63.3911888 115.34501,63.448699 115.286029,63.4940109 C115.227048,63.5393227 115.162864,63.5619783 115.093474,63.5619783 L111.492182,63.5619783 L111.471365,63.656087 C111.450548,63.7815658 111.44014,63.9070429 111.44014,64.0325217 C111.44014,64.3950163 111.537283,64.6965097 111.731574,64.9370109 C111.925864,65.1775121 112.203418,65.2977609 112.564243,65.2977609 C112.890373,65.2977609 113.171396,65.2332796 113.40732,65.1043152 C113.643244,64.9753508 113.823654,64.8411601 113.948555,64.7017391 C114.024883,64.6180865 114.082128,64.5675472 114.120292,64.5501196 C114.158457,64.5326919 114.219171,64.5239783 114.302439,64.5239783 L114.770815,64.5239783 C114.833265,64.5239783 114.881837,64.5431484 114.916532,64.5814891 C114.951227,64.6198299 114.961635,64.6703693 114.947757,64.7331087 C114.906123,64.8864718 114.767347,65.0694591 114.531423,65.2820761 C114.295499,65.4946931 113.991925,65.6776804 113.620691,65.8310435 C113.249458,65.9844066 112.845271,66.061087 112.408117,66.061087 Z M114.541831,62.8509348 L114.552239,62.8195652 C114.586934,62.645289 114.604281,62.4919282 114.604281,62.3594783 C114.604281,61.9969837 114.503668,61.7076895 114.302439,61.491587 C114.101209,61.2754844 113.816717,61.1674348 113.448953,61.1674348 C112.997922,61.1674348 112.611082,61.3207956 112.288421,61.6275217 C111.96576,61.9342479 111.752391,62.3315918 111.648307,62.8195652 L111.648307,62.8509348 L114.541831,62.8509348 Z M116.752521,67.9432609 C116.676193,67.9432609 116.620682,67.9206053 116.585987,67.8752935 C116.551293,67.8299817 116.540884,67.7724714 116.554762,67.7027609 L118.032749,60.7596304 C118.046627,60.6899199 118.079587,60.6324096 118.131629,60.5870978 C118.183671,60.541786 118.244386,60.5191304 118.313775,60.5191304 L118.750926,60.5191304 C118.827255,60.5191304 118.882765,60.541786 118.91746,60.5870978 C118.952155,60.6324096 118.962563,60.6899199 118.948685,60.7596304 L118.85501,61.2197174 C119.097873,60.9548175 119.35461,60.7544029 119.625229,60.6184674 C119.895847,60.4825319 120.23585,60.4145652 120.645248,60.4145652 C121.262814,60.4145652 121.722512,60.5923243 122.024356,60.9478478 C122.326199,61.3033713 122.477119,61.7669392 122.477119,62.3385652 C122.477119,62.5058704 122.459772,62.7010569 122.425077,62.9241304 C122.404261,63.0984067 122.359158,63.307535 122.289769,63.5515217 C122.109356,64.2834819 121.797109,64.8847259 121.353016,65.3552717 C120.908924,65.8258176 120.319123,66.061087 119.583595,66.061087 C118.820312,66.061087 118.299899,65.7961911 118.022341,65.2663913 L117.501923,67.7027609 C117.488045,67.7724714 117.455086,67.8299817 117.403044,67.8752935 C117.351002,67.9206053 117.290287,67.9432609 117.220897,67.9432609 L116.752521,67.9432609 Z M119.48992,65.2454783 C119.961768,65.2454783 120.350343,65.0851465 120.655656,64.7644783 C120.96097,64.44381 121.186482,64.0360097 121.3322,63.5410652 C121.380772,63.3877021 121.422405,63.1855447 121.4571,62.934587 C121.484856,62.7672818 121.498733,62.5895227 121.498733,62.4013043 C121.498733,61.6205468 121.148322,61.2301739 120.447489,61.2301739 C120.11442,61.2301739 119.814315,61.308597 119.547166,61.4654457 C119.280017,61.6222943 119.061443,61.8261944 118.891439,62.0771522 C118.721435,62.32811 118.60174,62.5895204 118.532351,62.8613913 C118.476839,63.0774938 118.417859,63.3493607 118.355409,63.677 C118.327653,63.8443052 118.313775,63.9697822 118.313775,64.0534348 C118.313775,64.3950162 118.409184,64.6790822 118.600005,64.9056413 C118.790826,65.1322004 119.087461,65.2454783 119.48992,65.2454783 Z M124.323517,65.9565217 C124.254127,65.9565217 124.200351,65.9338662 124.162187,65.8885543 C124.124023,65.8432425 124.11188,65.7857322 124.125758,65.7160217 L125.177002,60.770087 C125.19088,60.7003765 125.225574,60.6411234 125.281086,60.5923261 C125.336597,60.5435287 125.399047,60.5191304 125.468436,60.5191304 L125.905587,60.5191304 C125.981916,60.5191304 126.037426,60.5435287 126.072121,60.5923261 C126.106816,60.6411234 126.117224,60.7003765 126.103346,60.770087 L125.999263,61.2301739 C126.332332,60.7561426 126.856214,60.5191304 127.570925,60.5191304 L128.008076,60.5191304 C128.077466,60.5191304 128.129507,60.5400433 128.164202,60.5818696 C128.198896,60.6236959 128.209304,60.6829489 128.195427,60.7596304 L128.11216,61.1465217 C128.105221,61.2162322 128.073996,61.2737425 128.018484,61.3190543 C127.962973,61.3643662 127.900523,61.3870217 127.831134,61.3870217 L127.227449,61.3870217 C126.845807,61.3870217 126.521417,61.4985569 126.254267,61.7216304 C125.987118,61.944704 125.815382,62.2479401 125.739054,62.6313478 L125.083327,65.7160217 C125.069449,65.7857322 125.034755,65.8432425 124.979243,65.8885543 C124.923732,65.9338662 124.861282,65.9565217 124.791893,65.9565217 L124.323517,65.9565217 Z M131.176335,66.061087 C130.55877,66.061087 130.085194,65.8920415 129.755594,65.5539457 C129.425994,65.2158498 129.261197,64.7435682 129.261197,64.137087 C129.261197,63.9418976 129.275075,63.7571675 129.30283,63.5828913 C129.337525,63.3737598 129.386097,63.1402332 129.448548,62.8823043 C129.656716,62.129431 130.01927,61.5299298 130.536221,61.0837826 C131.053172,60.6376355 131.665525,60.4145652 132.373297,60.4145652 C132.997801,60.4145652 133.474847,60.5818679 133.804446,60.9164783 C134.134046,61.2510886 134.298843,61.7181419 134.298843,62.3176522 C134.298843,62.56861 134.267619,62.8404768 134.205168,63.1332609 L134.163535,63.3214783 C134.149657,63.3911888 134.113228,63.448699 134.054247,63.4940109 C133.995266,63.5393227 133.931082,63.5619783 133.861692,63.5619783 L130.2604,63.5619783 L130.239583,63.656087 C130.218766,63.7815658 130.208358,63.9070429 130.208358,64.0325217 C130.208358,64.3950163 130.305502,64.6965097 130.499792,64.9370109 C130.694082,65.1775121 130.971636,65.2977609 131.332461,65.2977609 C131.658591,65.2977609 131.939614,65.2332796 132.175538,65.1043152 C132.411462,64.9753508 132.591872,64.8411601 132.716773,64.7017391 C132.793101,64.6180865 132.850346,64.5675472 132.888511,64.5501196 C132.926675,64.5326919 132.98739,64.5239783 133.070657,64.5239783 L133.539033,64.5239783 C133.601484,64.5239783 133.650055,64.5431484 133.68475,64.5814891 C133.719445,64.6198299 133.729853,64.6703693 133.715975,64.7331087 C133.674342,64.8864718 133.535565,65.0694591 133.299641,65.2820761 C133.063717,65.4946931 132.760143,65.6776804 132.388909,65.8310435 C132.017676,65.9844066 131.613489,66.061087 131.176335,66.061087 Z M133.310049,62.8509348 L133.320458,62.8195652 C133.355152,62.645289 133.372499,62.4919282 133.372499,62.3594783 C133.372499,61.9969837 133.271886,61.7076895 133.070657,61.491587 C132.869428,61.2754844 132.584935,61.1674348 132.217171,61.1674348 C131.76614,61.1674348 131.3793,61.3207956 131.056639,61.6275217 C130.733978,61.9342479 130.520609,62.3315918 130.416525,62.8195652 L130.416525,62.8509348 L133.310049,62.8509348 Z M135.937074,65.9565217 C135.867684,65.9565217 135.813908,65.9338662 135.775744,65.8885543 C135.73758,65.8432425 135.725437,65.7857322 135.739315,65.7160217 L136.790559,60.7596304 C136.804437,60.6899199 136.839131,60.6324096 136.894643,60.5870978 C136.950154,60.541786 137.012604,60.5191304 137.081993,60.5191304 L137.529553,60.5191304 C137.598942,60.5191304 137.650983,60.5400433 137.685678,60.5818696 C137.720373,60.6236959 137.730781,60.6829489 137.716903,60.7596304 L137.61282,61.2197174 C138.126301,60.6829466 138.736919,60.4145652 139.444691,60.4145652 C140.04144,60.4145652 140.48726,60.5574696 140.782165,60.8432826 C141.07707,61.1290956 141.224521,61.529925 141.224521,62.0457826 C141.224521,62.2549141 141.196765,62.4919262 141.141254,62.7568261 L140.506344,65.7160217 C140.492466,65.7857322 140.459506,65.8432425 140.407464,65.8885543 C140.355422,65.9338662 140.294707,65.9565217 140.225318,65.9565217 L139.746533,65.9565217 C139.677144,65.9565217 139.625103,65.9338662 139.590408,65.8885543 C139.555713,65.8432425 139.545305,65.7857322 139.559183,65.7160217 L140.162868,62.8195652 C140.225318,62.5546653 140.256543,62.3246242 140.256543,62.1294348 C140.256543,61.8227086 140.175012,61.5961529 140.011947,61.4497609 C139.848881,61.3033688 139.583471,61.2301739 139.215707,61.2301739 C138.729981,61.2301739 138.31712,61.3713355 137.977112,61.653663 C137.637104,61.9359905 137.411592,62.3246207 137.300569,62.8195652 L136.696884,65.7160217 C136.683006,65.7857322 136.650047,65.8432425 136.598004,65.8885543 C136.545962,65.9338662 136.485248,65.9565217 136.415858,65.9565217 L135.937074,65.9565217 Z M145.225449,66.061087 C144.607883,66.061087 144.134307,65.8920415 143.804707,65.5539457 C143.475108,65.2158498 143.31031,64.7435682 143.31031,64.137087 C143.31031,63.9418976 143.324188,63.7571675 143.351944,63.5828913 C143.386638,63.3737598 143.43521,63.1402332 143.497661,62.8823043 C143.705829,62.129431 144.068383,61.5299298 144.585334,61.0837826 C145.102286,60.6376355 145.714638,60.4145652 146.42241,60.4145652 C147.046915,60.4145652 147.52396,60.5818679 147.853559,60.9164783 C148.183159,61.2510886 148.347957,61.7181419 148.347957,62.3176522 C148.347957,62.56861 148.316732,62.8404768 148.254281,63.1332609 L148.212648,63.3214783 C148.19877,63.3911888 148.162341,63.448699 148.10336,63.4940109 C148.044379,63.5393227 147.980195,63.5619783 147.910805,63.5619783 L144.309513,63.5619783 L144.288696,63.656087 C144.267879,63.7815658 144.257471,63.9070429 144.257471,64.0325217 C144.257471,64.3950163 144.354615,64.6965097 144.548905,64.9370109 C144.743195,65.1775121 145.020749,65.2977609 145.381574,65.2977609 C145.707704,65.2977609 145.988727,65.2332796 146.224651,65.1043152 C146.460575,64.9753508 146.640985,64.8411601 146.765886,64.7017391 C146.842214,64.6180865 146.89946,64.5675472 146.937624,64.5501196 C146.975788,64.5326919 147.036503,64.5239783 147.11977,64.5239783 L147.588146,64.5239783 C147.650597,64.5239783 147.699169,64.5431484 147.733863,64.5814891 C147.768558,64.6198299 147.778966,64.6703693 147.765088,64.7331087 C147.723455,64.8864718 147.584678,65.0694591 147.348754,65.2820761 C147.11283,65.4946931 146.809256,65.6776804 146.438023,65.8310435 C146.066789,65.9844066 145.662602,66.061087 145.225449,66.061087 Z M147.359162,62.8509348 L147.369571,62.8195652 C147.404265,62.645289 147.421613,62.4919282 147.421613,62.3594783 C147.421613,61.9969837 147.320999,61.7076895 147.11977,61.491587 C146.918541,61.2754844 146.634048,61.1674348 146.266285,61.1674348 C145.815253,61.1674348 145.428413,61.3207956 145.105752,61.6275217 C144.783092,61.9342479 144.569722,62.3315918 144.465638,62.8195652 L144.465638,62.8509348 L147.359162,62.8509348 Z M151.849283,66.061087 C151.252534,66.061087 150.808449,65.9181826 150.517013,65.6323696 C150.225578,65.3465565 150.079862,64.9457272 150.079862,64.4298696 C150.079862,64.2277091 150.107617,63.9872115 150.163129,63.7083696 L150.787631,60.7596304 C150.801508,60.6899199 150.834468,60.6324096 150.88651,60.5870978 C150.938552,60.541786 151.002736,60.5191304 151.079065,60.5191304 L151.557849,60.5191304 C151.627239,60.5191304 151.677545,60.541786 151.70877,60.5870978 C151.739996,60.6324096 151.748669,60.6899199 151.734791,60.7596304 L151.131106,63.656087 C151.068656,63.9279579 151.037431,64.16497 151.037431,64.3671304 C151.037431,64.6599145 151.117228,64.8794993 151.276823,65.0258913 C151.436419,65.1722833 151.700095,65.2454783 152.067859,65.2454783 C152.539707,65.2454783 152.945629,65.1025739 153.285637,64.8167609 C153.625645,64.5309478 153.847688,64.1440604 153.951772,63.656087 L154.565865,60.7596304 C154.579743,60.6899199 154.614437,60.6324096 154.669949,60.5870978 C154.72546,60.541786 154.78791,60.5191304 154.857299,60.5191304 L155.336084,60.5191304 C155.405473,60.5191304 155.457515,60.541786 155.492209,60.5870978 C155.526904,60.6324096 155.537312,60.6899199 155.523434,60.7596304 L154.47219,65.7160217 C154.458312,65.7857322 154.425353,65.8432425 154.373311,65.8885543 C154.321269,65.9338662 154.260554,65.9565217 154.191164,65.9565217 L153.743605,65.9565217 C153.674215,65.9565217 153.620439,65.9338662 153.582275,65.8885543 C153.544111,65.8432425 153.531968,65.7857322 153.545846,65.7160217 L153.639521,65.2454783 C153.375841,65.5312913 153.119104,65.7386769 152.869303,65.8676413 C152.619501,65.9966057 152.279498,66.061087 151.849283,66.061087 Z M157.224115,65.9565217 C157.154725,65.9565217 157.100949,65.9338662 157.062785,65.8885543 C157.024621,65.8432425 157.012478,65.7857322 157.026356,65.7160217 L158.0776,60.770087 C158.091478,60.7003765 158.126172,60.6411234 158.181684,60.5923261 C158.237195,60.5435287 158.299645,60.5191304 158.369034,60.5191304 L158.806186,60.5191304 C158.882514,60.5191304 158.938025,60.5435287 158.972719,60.5923261 C159.007414,60.6411234 159.017822,60.7003765 159.003944,60.770087 L158.899861,61.2301739 C159.23293,60.7561426 159.756812,60.5191304 160.471523,60.5191304 L160.908674,60.5191304 C160.978064,60.5191304 161.030105,60.5400433 161.0648,60.5818696 C161.099494,60.6236959 161.109903,60.6829489 161.096025,60.7596304 L161.012758,61.1465217 C161.005819,61.2162322 160.974594,61.2737425 160.919083,61.3190543 C160.863571,61.3643662 160.801122,61.3870217 160.731732,61.3870217 L160.128047,61.3870217 C159.746406,61.3870217 159.422015,61.4985569 159.154866,61.7216304 C158.887716,61.944704 158.71598,62.2479401 158.639652,62.6313478 L157.983925,65.7160217 C157.970047,65.7857322 157.935353,65.8432425 157.879842,65.8885543 C157.82433,65.9338662 157.76188,65.9565217 157.692491,65.9565217 L157.224115,65.9565217 Z M163.421207,59.4943913 C163.351817,59.4943913 163.298041,59.4717357 163.259877,59.4264239 C163.221713,59.3811121 163.20957,59.3236018 163.223448,59.2538913 L163.348348,58.7101522 C163.362226,58.6404417 163.395186,58.5811886 163.447228,58.5323913 C163.49927,58.483594 163.559985,58.4591957 163.629374,58.4591957 L164.253876,58.4591957 C164.323265,58.4591957 164.377041,58.483594 164.415205,58.5323913 C164.453369,58.5811886 164.465512,58.6404417 164.451634,58.7101522 L164.326734,59.2538913 C164.319795,59.3236018 164.28857,59.3811121 164.233059,59.4264239 C164.177547,59.4717357 164.115098,59.4943913 164.045708,59.4943913 L163.421207,59.4943913 Z M162.140979,65.9565217 C162.071589,65.9565217 162.017813,65.9338662 161.979649,65.8885543 C161.941485,65.8432425 161.929342,65.7857322 161.94322,65.7160217 L162.994464,60.7596304 C163.008342,60.6899199 163.043036,60.6324096 163.098548,60.5870978 C163.154059,60.541786 163.216509,60.5191304 163.285898,60.5191304 L163.743866,60.5191304 C163.813255,60.5191304 163.865297,60.541786 163.899991,60.5870978 C163.934686,60.6324096 163.945094,60.6899199 163.931216,60.7596304 L162.879972,65.7160217 C162.866094,65.7857322 162.833135,65.8432425 162.781093,65.8885543 C162.729051,65.9338662 162.668336,65.9565217 162.598946,65.9565217 L162.140979,65.9565217 Z M167.380501,66.061087 C166.762936,66.061087 166.310176,65.8868133 166.02221,65.5382609 C165.734244,65.1897084 165.590263,64.7331115 165.590263,64.1684565 C165.590263,63.9872092 165.607611,63.7815664 165.642305,63.5515217 C165.663122,63.3772455 165.708224,63.1681172 165.777614,62.9241304 C165.964965,62.1851992 166.272009,61.5822125 166.698754,61.1151522 C167.125499,60.6480919 167.710096,60.4145652 168.452562,60.4145652 C168.868899,60.4145652 169.19329,60.4825319 169.425744,60.6184674 C169.658199,60.7544029 169.843813,60.9443611 169.982591,61.1883478 L170.076267,60.7596304 C170.090145,60.6899199 170.123104,60.6324096 170.175146,60.5870978 C170.227188,60.541786 170.287903,60.5191304 170.357292,60.5191304 L170.804852,60.5191304 C170.874241,60.5191304 170.926283,60.541786 170.960977,60.5870978 C170.995672,60.6324096 171.00608,60.6899199 170.992202,60.7596304 L169.951366,65.7160217 C169.937488,65.7857322 169.904529,65.8432425 169.852487,65.8885543 C169.800445,65.9338662 169.73973,65.9565217 169.670341,65.9565217 L169.222781,65.9565217 C169.153392,65.9565217 169.099616,65.9338662 169.061452,65.8885543 C169.023287,65.8432425 169.011144,65.7857322 169.025022,65.7160217 L169.129106,65.2663913 C168.872365,65.5312912 168.619097,65.7299631 168.369296,65.862413 C168.119494,65.994863 167.789899,66.061087 167.380501,66.061087 Z M167.567852,65.2454783 C168.060517,65.2454783 168.471643,65.0816611 168.801243,64.7540217 C169.130842,64.4263824 169.347681,64.0429805 169.451765,63.6038043 C169.541971,63.2343387 169.600951,62.9659574 169.628707,62.7986522 C169.656463,62.6174049 169.670341,62.4849569 169.670341,62.4013043 C169.670341,62.0597229 169.580136,61.7791424 169.399723,61.5595543 C169.219311,61.3399663 168.931349,61.2301739 168.535829,61.2301739 C168.07092,61.2301739 167.691019,61.3887629 167.396114,61.7059457 C167.101209,62.0231284 166.880901,62.4326714 166.735183,62.934587 C166.672733,63.1506895 166.6311,63.3528469 166.610283,63.5410652 C166.575588,63.7711098 166.558241,63.9697818 166.558241,64.137087 C166.558241,64.8760182 166.894775,65.2454783 167.567852,65.2454783 Z M172.692883,65.9565217 C172.623493,65.9565217 172.569717,65.9338662 172.531553,65.8885543 C172.493389,65.8432425 172.481246,65.7857322 172.495124,65.7160217 L173.973111,58.7728913 C173.986989,58.7031808 174.019948,58.6456705 174.07199,58.6003587 C174.124033,58.5550469 174.184747,58.5323913 174.254137,58.5323913 L174.712105,58.5323913 C174.781494,58.5323913 174.83527,58.5550469 174.873434,58.6003587 C174.911598,58.6456705 174.923741,58.7031808 174.909863,58.7728913 L173.431876,65.7160217 C173.417998,65.7857322 173.385039,65.8432425 173.332997,65.8885543 C173.280955,65.9338662 173.22024,65.9565217 173.150851,65.9565217 L172.692883,65.9565217 Z M185.403435,66.061087 C184.785869,66.061087 184.312294,65.8920415 183.982694,65.5539457 C183.653094,65.2158498 183.488297,64.7435682 183.488297,64.137087 C183.488297,63.9418976 183.502175,63.7571675 183.52993,63.5828913 C183.564625,63.3737598 183.613197,63.1402332 183.675647,62.8823043 C183.883816,62.129431 184.24637,61.5299298 184.763321,61.0837826 C185.280272,60.6376355 185.892625,60.4145652 186.600397,60.4145652 C187.224901,60.4145652 187.701946,60.5818679 188.031546,60.9164783 C188.361146,61.2510886 188.525943,61.7181419 188.525943,62.3176522 C188.525943,62.56861 188.494718,62.8404768 188.432268,63.1332609 L188.390635,63.3214783 C188.376757,63.3911888 188.340328,63.448699 188.281347,63.4940109 C188.222366,63.5393227 188.158182,63.5619783 188.088792,63.5619783 L184.4875,63.5619783 L184.466683,63.656087 C184.445866,63.7815658 184.435458,63.9070429 184.435458,64.0325217 C184.435458,64.3950163 184.532601,64.6965097 184.726892,64.9370109 C184.921182,65.1775121 185.198736,65.2977609 185.559561,65.2977609 C185.885691,65.2977609 186.166714,65.2332796 186.402638,65.1043152 C186.638562,64.9753508 186.818972,64.8411601 186.943873,64.7017391 C187.020201,64.6180865 187.077446,64.5675472 187.11561,64.5501196 C187.153775,64.5326919 187.214489,64.5239783 187.297757,64.5239783 L187.766133,64.5239783 C187.828583,64.5239783 187.877155,64.5431484 187.91185,64.5814891 C187.946545,64.6198299 187.956953,64.6703693 187.943075,64.7331087 C187.901441,64.8864718 187.762665,65.0694591 187.526741,65.2820761 C187.290817,65.4946931 186.987243,65.6776804 186.616009,65.8310435 C186.244776,65.9844066 185.840589,66.061087 185.403435,66.061087 Z M187.537149,62.8509348 L187.547557,62.8195652 C187.582252,62.645289 187.599599,62.4919282 187.599599,62.3594783 C187.599599,61.9969837 187.498986,61.7076895 187.297757,61.491587 C187.096527,61.2754844 186.812035,61.1674348 186.444271,61.1674348 C185.99324,61.1674348 185.6064,61.3207956 185.283739,61.6275217 C184.961078,61.9342479 184.747709,62.3315918 184.643625,62.8195652 L184.643625,62.8509348 L187.537149,62.8509348 Z M192.120945,66.061087 C191.503379,66.061087 191.012457,65.895527 190.648162,65.5644022 C190.283868,65.2332773 190.101723,64.7714522 190.101723,64.178913 C190.101723,64.0394921 190.11907,63.8652184 190.153765,63.656087 C190.237032,63.237824 190.296013,62.9589862 190.330707,62.8195652 C190.518059,62.0527498 190.854592,61.4602195 191.340318,61.0419565 C191.826044,60.6236936 192.440131,60.4145652 193.182598,60.4145652 C193.654446,60.4145652 194.039551,60.4947311 194.337926,60.6550652 C194.6363,60.8153994 194.853139,61.0192995 194.988448,61.2667717 C195.123758,61.514244 195.191411,61.7669407 195.191411,62.0248696 C195.191411,62.0945801 195.187942,62.1468621 195.181003,62.1817174 C195.174064,62.2514279 195.149778,62.3089382 195.108145,62.35425 C195.066511,62.3995618 195.011,62.4222174 194.941611,62.4222174 L194.44201,62.4222174 C194.365681,62.4222174 194.31017,62.4013046 194.275476,62.3594783 C194.240781,62.317652 194.223434,62.2479425 194.223434,62.1503478 C194.223434,61.5299244 193.862614,61.2197174 193.140965,61.2197174 C192.696872,61.2197174 192.310032,61.3556508 191.980432,61.6275217 C191.650833,61.8993927 191.416647,62.3141639 191.277868,62.8718478 L191.121743,63.6038043 C191.087048,63.8268779 191.069701,64.004637 191.069701,64.137087 C191.069701,64.8829892 191.437459,65.2559348 192.172987,65.2559348 C192.915454,65.2559348 193.446275,64.9422423 193.765466,64.3148478 C193.814039,64.2311952 193.857406,64.1736849 193.895571,64.1423152 C193.933735,64.1109455 193.987511,64.0952609 194.0569,64.0952609 L194.556501,64.0952609 C194.618952,64.0952609 194.667524,64.1179164 194.702219,64.1632283 C194.736913,64.2085401 194.743852,64.2660504 194.723035,64.3357609 C194.646707,64.6006607 194.502726,64.8655566 194.291088,65.1304565 C194.079451,65.3953564 193.791489,65.6166839 193.427194,65.7944457 C193.0629,65.9722074 192.627488,66.061087 192.120945,66.061087 Z M198.838455,66.061087 C198.193134,66.061087 197.691803,65.8920415 197.334447,65.5539457 C196.977092,65.2158498 196.798417,64.7644811 196.798417,64.1998261 C196.798417,64.0534341 196.815764,63.8826459 196.850458,63.6874565 C196.885153,63.4086145 196.947603,63.1088639 197.037809,62.7881957 C197.218221,62.0632065 197.549551,61.4863608 198.031807,61.0576413 C198.514064,60.6289218 199.136824,60.4145652 199.900108,60.4145652 C200.552368,60.4145652 201.055434,60.5853534 201.40932,60.9269348 C201.763206,61.2685162 201.940147,61.7251131 201.940147,62.2967391 C201.940147,62.4779864 201.926269,62.6418036 201.898513,62.7881957 C201.836063,63.1297771 201.770144,63.4295277 201.700754,63.6874565 C201.520342,64.4124457 201.189012,64.9892913 200.706756,65.4180109 C200.224499,65.8467304 199.601739,66.061087 198.838455,66.061087 Z M198.880089,65.2768478 C199.33112,65.2768478 199.724899,65.1356862 200.061438,64.8533587 C200.397976,64.5710312 200.632162,64.1649737 200.764002,63.6351739 C200.791758,63.5236371 200.847268,63.2587412 200.930536,62.8404783 C200.96523,62.6452889 200.982577,62.4814717 200.982577,62.3490217 C200.982577,61.9725851 200.887168,61.6867763 200.696347,61.491587 C200.505527,61.2963976 200.226238,61.1988043 199.858474,61.1988043 C199.407443,61.1988043 199.013664,61.3417087 198.677126,61.6275217 C198.340587,61.9133348 198.109871,62.3176496 197.98497,62.8404783 C197.908641,63.0984071 197.849661,63.363303 197.808028,63.6351739 C197.780272,63.795508 197.766394,63.9593253 197.766394,64.1266304 C197.766394,64.8934459 198.137622,65.2768478 198.880089,65.2768478 Z M205.503923,66.061087 C205.059831,66.061087 204.693807,65.9913775 204.405841,65.8519565 C204.117875,65.7125355 203.90971,65.5504611 203.78134,65.3657283 C203.652969,65.1809955 203.588785,65.01195 203.588785,64.858587 C203.588785,64.7749344 203.618275,64.7052249 203.677256,64.6494565 C203.736237,64.5936881 203.796952,64.5658043 203.859402,64.5658043 L204.296554,64.5658043 C204.338187,64.5658043 204.371147,64.5727753 204.395433,64.5867174 C204.419719,64.6006595 204.442271,64.6320287 204.463087,64.6808261 C204.594927,64.8829865 204.745847,65.03809 204.915851,65.1461413 C205.085855,65.2541926 205.337388,65.3082174 205.670457,65.3082174 C206.04516,65.3082174 206.360877,65.2385079 206.617618,65.099087 C206.874359,64.959666 207.030483,64.7575086 207.085994,64.4926087 C207.099872,64.4089561 207.106811,64.356674 207.106811,64.3357609 C207.106811,64.1405715 207.002728,63.9889534 206.79456,63.8809022 C206.586392,63.7728509 206.204756,63.6526021 205.64964,63.5201522 C205.163915,63.4016443 204.815238,63.2447981 204.6036,63.0496087 C204.391963,62.8544193 204.286145,62.6139217 204.286145,62.3281087 C204.286145,62.2583982 204.300023,62.1398921 204.327779,61.972587 C204.38329,61.7076871 204.513393,61.4567331 204.718092,61.2197174 C204.922791,60.9827017 205.191671,60.789258 205.52474,60.6393804 C205.857809,60.4895029 206.232507,60.4145652 206.648843,60.4145652 C207.079057,60.4145652 207.432938,60.4860174 207.710496,60.6289239 C207.988053,60.7718304 208.18581,60.9391331 208.303772,61.130837 C208.421734,61.3225408 208.466837,61.4846153 208.439081,61.6170652 C208.432142,61.6867757 208.402652,61.744286 208.35061,61.7895978 C208.298568,61.8349096 208.237853,61.8575652 208.168464,61.8575652 L207.762538,61.8575652 C207.67927,61.8575652 207.62029,61.819225 207.585595,61.7425435 C207.48845,61.6031225 207.408654,61.4985583 207.346203,61.4288478 C207.283753,61.3591373 207.18314,61.2981416 207.044361,61.2458587 C206.905582,61.1935758 206.721703,61.1674348 206.492718,61.1674348 C206.152709,61.1674348 205.876891,61.238887 205.665253,61.3817935 C205.453615,61.5247 205.320043,61.7146582 205.264531,61.9516739 C205.250653,62.0213844 205.243714,62.0736665 205.243714,62.1085217 C205.243714,62.2758269 205.339123,62.4152458 205.529944,62.5267826 C205.720765,62.6383194 206.072911,62.75334 206.586393,62.8718478 C207.120691,62.9903557 207.505797,63.1541729 207.741721,63.3633043 C207.977645,63.5724358 208.095605,63.8303608 208.095605,64.137087 C208.095605,64.2346816 208.085197,64.3427313 208.06438,64.4612391 C207.967235,64.9213284 207.691416,65.3029876 207.236915,65.6062283 C206.782415,65.9094689 206.204756,66.061087 205.503923,66.061087 Z M210.077311,67.9432609 C210.028739,67.9432609 209.98884,67.9275762 209.957615,67.8962065 C209.92639,67.8648368 209.910777,67.8247539 209.910777,67.7759565 C209.910777,67.7132171 209.928125,67.653964 209.962819,67.5981957 L211.243048,65.5905435 L210.223028,60.8014565 C210.20915,60.724775 210.221293,60.658551 210.259457,60.6027826 C210.297622,60.5470142 210.365275,60.5191304 210.462421,60.5191304 L210.889163,60.5191304 C211.014064,60.5191304 211.090391,60.574898 211.118147,60.6864348 L211.929999,64.5448913 L214.396781,60.6864348 C214.46617,60.574898 214.563314,60.5191304 214.688215,60.5191304 L215.208633,60.5191304 C215.257205,60.5191304 215.298838,60.5348151 215.333533,60.5661848 C215.368228,60.5975545 215.385575,60.6376374 215.385575,60.6864348 C215.385575,60.7282611 215.371697,60.7735722 215.343941,60.8223696 L210.878755,67.7759565 C210.795488,67.8874933 210.694874,67.9432609 210.576912,67.9432609 L210.077311,67.9432609 Z M218.127091,66.061087 C217.682999,66.061087 217.316975,65.9913775 217.029009,65.8519565 C216.741043,65.7125355 216.532878,65.5504611 216.404508,65.3657283 C216.276137,65.1809955 216.211953,65.01195 216.211953,64.858587 C216.211953,64.7749344 216.241443,64.7052249 216.300424,64.6494565 C216.359405,64.5936881 216.42012,64.5658043 216.48257,64.5658043 L216.919722,64.5658043 C216.961355,64.5658043 216.994315,64.5727753 217.018601,64.5867174 C217.042887,64.6006595 217.065438,64.6320287 217.086255,64.6808261 C217.218095,64.8829865 217.369015,65.03809 217.539019,65.1461413 C217.709023,65.2541926 217.960556,65.3082174 218.293625,65.3082174 C218.668328,65.3082174 218.984045,65.2385079 219.240786,65.099087 C219.497527,64.959666 219.65365,64.7575086 219.709162,64.4926087 C219.72304,64.4089561 219.729979,64.356674 219.729979,64.3357609 C219.729979,64.1405715 219.625896,63.9889534 219.417728,63.8809022 C219.20956,63.7728509 218.827924,63.6526021 218.272808,63.5201522 C217.787082,63.4016443 217.438406,63.2447981 217.226768,63.0496087 C217.01513,62.8544193 216.909313,62.6139217 216.909313,62.3281087 C216.909313,62.2583982 216.923191,62.1398921 216.950947,61.972587 C217.006458,61.7076871 217.136561,61.4567331 217.34126,61.2197174 C217.545959,60.9827017 217.814839,60.789258 218.147908,60.6393804 C218.480977,60.4895029 218.855674,60.4145652 219.272011,60.4145652 C219.702225,60.4145652 220.056106,60.4860174 220.333664,60.6289239 C220.611221,60.7718304 220.808978,60.9391331 220.92694,61.130837 C221.044902,61.3225408 221.090005,61.4846153 221.062249,61.6170652 C221.05531,61.6867757 221.02582,61.744286 220.973778,61.7895978 C220.921736,61.8349096 220.861021,61.8575652 220.791631,61.8575652 L220.385705,61.8575652 C220.302438,61.8575652 220.243458,61.819225 220.208763,61.7425435 C220.111618,61.6031225 220.031821,61.4985583 219.969371,61.4288478 C219.906921,61.3591373 219.806307,61.2981416 219.667529,61.2458587 C219.52875,61.1935758 219.344871,61.1674348 219.115885,61.1674348 C218.775877,61.1674348 218.500059,61.238887 218.288421,61.3817935 C218.076783,61.5247 217.943211,61.7146582 217.887699,61.9516739 C217.873821,62.0213844 217.866882,62.0736665 217.866882,62.1085217 C217.866882,62.2758269 217.962291,62.4152458 218.153112,62.5267826 C218.343933,62.6383194 218.696079,62.75334 219.209561,62.8718478 C219.743859,62.9903557 220.128965,63.1541729 220.364889,63.3633043 C220.600813,63.5724358 220.718773,63.8303608 220.718773,64.137087 C220.718773,64.2346816 220.708365,64.3427313 220.687548,64.4612391 C220.590403,64.9213284 220.314584,65.3029876 219.860083,65.6062283 C219.405583,65.9094689 218.827924,66.061087 218.127091,66.061087 Z M224.542759,65.9565217 C224.036216,65.9565217 223.673662,65.8606712 223.455085,65.6689674 C223.236509,65.4772635 223.127222,65.196683 223.127222,64.8272174 C223.127222,64.625057 223.154977,64.3915303 223.210489,64.1266304 L223.803765,61.3242826 L222.991913,61.3242826 C222.922524,61.3242826 222.868748,61.3033698 222.830584,61.2615435 C222.792419,61.2197172 222.780276,61.1639496 222.794154,61.0942391 L222.867013,60.7596304 C222.880891,60.6899199 222.915585,60.6324096 222.971096,60.5870978 C223.026608,60.541786 223.089058,60.5191304 223.158447,60.5191304 L223.970299,60.5191304 L224.345,58.7728913 C224.358878,58.7031808 224.391837,58.6456705 224.443879,58.6003587 C224.495921,58.5550469 224.556636,58.5323913 224.626026,58.5323913 L225.073585,58.5323913 C225.149914,58.5323913 225.205424,58.5550469 225.240119,58.6003587 C225.274814,58.6456705 225.285222,58.7031808 225.271344,58.7728913 L224.896643,60.5191304 L226.18728,60.5191304 C226.256669,60.5191304 226.30871,60.5400433 226.343405,60.5818696 C226.3781,60.6236959 226.388508,60.6829489 226.37463,60.7596304 L226.301772,61.0942391 C226.287894,61.1639496 226.254934,61.2197172 226.202892,61.2615435 C226.15085,61.3033698 226.090135,61.3242826 226.020746,61.3242826 L224.730109,61.3242826 L224.147241,64.0534348 C224.084791,64.3392478 224.053566,64.5448907 224.053566,64.6703696 C224.053566,64.8237327 224.096934,64.9387532 224.18367,65.0154348 C224.270407,65.0921163 224.421327,65.1304565 224.636434,65.1304565 L225.323386,65.1304565 C225.392775,65.1304565 225.443082,65.1531121 225.474307,65.1984239 C225.505532,65.2437357 225.514206,65.301246 225.500328,65.3709565 L225.427469,65.7160217 C225.413592,65.7857322 225.380632,65.8432425 225.32859,65.8885543 C225.276548,65.9338662 225.215833,65.9565217 225.146444,65.9565217 L224.542759,65.9565217 Z M229.626156,66.061087 C229.00859,66.061087 228.535015,65.8920415 228.205415,65.5539457 C227.875815,65.2158498 227.711018,64.7435682 227.711018,64.137087 C227.711018,63.9418976 227.724896,63.7571675 227.752651,63.5828913 C227.787346,63.3737598 227.835918,63.1402332 227.898368,62.8823043 C228.106537,62.129431 228.469091,61.5299298 228.986042,61.0837826 C229.502993,60.6376355 230.115346,60.4145652 230.823118,60.4145652 C231.447622,60.4145652 231.924667,60.5818679 232.254267,60.9164783 C232.583867,61.2510886 232.748664,61.7181419 232.748664,62.3176522 C232.748664,62.56861 232.71744,62.8404768 232.654989,63.1332609 L232.613356,63.3214783 C232.599478,63.3911888 232.563049,63.448699 232.504068,63.4940109 C232.445087,63.5393227 232.380903,63.5619783 232.311513,63.5619783 L228.710221,63.5619783 L228.689404,63.656087 C228.668587,63.7815658 228.658179,63.9070429 228.658179,64.0325217 C228.658179,64.3950163 228.755323,64.6965097 228.949613,64.9370109 C229.143903,65.1775121 229.421457,65.2977609 229.782282,65.2977609 C230.108412,65.2977609 230.389435,65.2332796 230.625359,65.1043152 C230.861283,64.9753508 231.041693,64.8411601 231.166594,64.7017391 C231.242922,64.6180865 231.300167,64.5675472 231.338332,64.5501196 C231.376496,64.5326919 231.437211,64.5239783 231.520478,64.5239783 L231.988854,64.5239783 C232.051305,64.5239783 232.099876,64.5431484 232.134571,64.5814891 C232.169266,64.6198299 232.179674,64.6703693 232.165796,64.7331087 C232.124163,64.8864718 231.985386,65.0694591 231.749462,65.2820761 C231.513538,65.4946931 231.209964,65.6776804 230.83873,65.8310435 C230.467497,65.9844066 230.06331,66.061087 229.626156,66.061087 Z M231.75987,62.8509348 L231.770278,62.8195652 C231.804973,62.645289 231.82232,62.4919282 231.82232,62.3594783 C231.82232,61.9969837 231.721707,61.7076895 231.520478,61.491587 C231.319249,61.2754844 231.034756,61.1674348 230.666992,61.1674348 C230.215961,61.1674348 229.829121,61.3207956 229.50646,61.6275217 C229.183799,61.9342479 228.97043,62.3315918 228.866346,62.8195652 L228.866346,62.8509348 L231.75987,62.8509348 Z M234.386895,65.9565217 C234.317505,65.9565217 234.263729,65.9338662 234.225565,65.8885543 C234.187401,65.8432425 234.175258,65.7857322 234.189136,65.7160217 L235.24038,60.7596304 C235.254258,60.6899199 235.288952,60.6324096 235.344464,60.5870978 C235.399975,60.541786 235.462425,60.5191304 235.531814,60.5191304 L235.968965,60.5191304 C236.038355,60.5191304 236.088661,60.541786 236.119887,60.5870978 C236.151112,60.6324096 236.159785,60.6899199 236.145907,60.7596304 L236.073049,61.1151522 C236.308973,60.8781365 236.543159,60.7021201 236.775613,60.5870978 C237.008068,60.4720755 237.287356,60.4145652 237.613486,60.4145652 C238.009006,60.4145652 238.343805,60.4982166 238.617893,60.6655217 C238.891981,60.8328269 239.074126,61.069839 239.164332,61.3765652 C239.663936,60.7352287 240.278023,60.4145652 241.006612,60.4145652 C241.492338,60.4145652 241.886117,60.5557268 242.18796,60.8380543 C242.489804,61.1203818 242.640724,61.5229539 242.640724,62.0457826 C242.640724,62.2618851 242.616438,62.4779844 242.567866,62.694087 L241.922547,65.7160217 C241.908669,65.7857322 241.87571,65.8432425 241.823668,65.8885543 C241.771626,65.9338662 241.710911,65.9565217 241.641522,65.9565217 L241.193962,65.9565217 C241.124573,65.9565217 241.070797,65.9338662 241.032633,65.8885543 C240.994468,65.8432425 240.982325,65.7857322 240.996203,65.7160217 L241.620705,62.7881957 C241.669277,62.5651221 241.693563,62.3594792 241.693563,62.1712609 C241.693563,61.5438664 241.391724,61.2301739 240.788036,61.2301739 C240.441089,61.2301739 240.109759,61.3539082 239.794038,61.6013804 C239.478316,61.8488527 239.264947,62.2444538 239.153924,62.7881957 L238.529422,65.7160217 C238.515544,65.7857322 238.482585,65.8432425 238.430542,65.8885543 C238.3785,65.9338662 238.317786,65.9565217 238.248396,65.9565217 L237.790428,65.9565217 C237.721039,65.9565217 237.668998,65.9338662 237.634303,65.8885543 C237.599608,65.8432425 237.5892,65.7857322 237.603078,65.7160217 L238.217171,62.7881957 C238.265744,62.5720931 238.29003,62.3699357 238.29003,62.1817174 C238.29003,61.847107 238.206764,61.6048667 238.040229,61.4549891 C237.873694,61.3051116 237.655121,61.2301739 237.384502,61.2301739 C237.037555,61.2301739 236.706226,61.3539082 236.390504,61.6013804 C236.074782,61.8488527 235.861413,62.2409683 235.75039,62.7777391 L235.125888,65.7160217 C235.11201,65.7857322 235.079051,65.8432425 235.027009,65.8885543 C234.974967,65.9338662 234.914252,65.9565217 234.844862,65.9565217 L234.386895,65.9565217 Z" id="theentrepreneurialecosystem" fill="#112147" fill-rule="nonzero"></path>
            </g>
        </g>
    </g>
</svg>